<svg width="34" height="35" viewBox="0 0 34 35" fill="none" xmlns="http://www.w3.org/2000/svg">
<path fill-rule="evenodd" clip-rule="evenodd" d="M19.8165 7.06911V11.2912C19.8162 11.4447 19.8159 11.6637 19.8452 11.8516C19.8811 12.0814 19.9993 12.5251 20.4587 12.7948C20.9011 13.0545 21.3337 12.958 21.5394 12.8941C21.7187 12.8384 21.9153 12.7447 22.0619 12.6749L23.6137 11.9377L25.1655 12.6749C25.3121 12.7447 25.5086 12.8384 25.688 12.8941C25.8936 12.958 26.3263 13.0545 26.7687 12.7948C27.228 12.5251 27.3462 12.0814 27.3821 11.8516C27.4115 11.6637 27.4112 11.4448 27.4109 11.2912V5.06936C27.5667 5.06205 27.7195 5.05586 27.8691 5.05065C29.349 4.99909 30.5175 6.21468 30.5175 7.69552V23.175C30.5175 24.7091 29.2665 25.9503 27.7353 26.046C26.3967 26.1298 24.824 26.2934 23.6134 26.613C22.1201 27.0069 20.3369 27.86 18.9568 28.5955C18.5714 28.801 18.1635 28.9497 17.7452 29.042V8.02785C18.1881 7.91936 18.6182 7.74831 19.0206 7.51541C19.275 7.36814 19.542 7.21794 19.8165 7.06911ZM27.38 18.5831C27.5186 19.1379 27.1813 19.7002 26.6265 19.839L21.1032 21.2198C20.5483 21.3586 19.986 21.0211 19.8474 20.4663C19.7086 19.9115 20.046 19.3492 20.6009 19.2104L26.1242 17.8296C26.679 17.6908 27.2412 18.0283 27.38 18.5831Z"/>
<path fill-rule="evenodd" clip-rule="evenodd" d="M15.6739 8.08325C15.2123 7.99558 14.7615 7.84006 14.3374 7.61583C12.9757 6.89581 11.254 6.08154 9.80519 5.69923C8.58109 5.37622 6.98663 5.21244 5.63845 5.12958C4.12494 5.03655 2.90112 6.26839 2.90112 7.78476V23.175C2.90112 24.7091 4.15221 25.9503 5.68327 26.046C7.02186 26.1298 8.59462 26.2935 9.80519 26.613C11.2985 27.0069 13.0818 27.86 14.4619 28.5956C14.8474 28.801 15.2555 28.9499 15.6739 29.0421V8.08325ZM6.03912 13.0599C6.17784 12.505 6.7401 12.1676 7.29498 12.3064L12.8182 13.6872C13.3731 13.8259 13.7105 14.3882 13.5717 14.943C13.433 15.4978 12.8708 15.8353 12.3159 15.6965L6.79264 14.3157C6.23776 14.177 5.9004 13.6147 6.03912 13.0599ZM7.29498 17.8296C6.7401 17.6909 6.17784 18.0283 6.03912 18.5831C5.9004 19.1379 6.23776 19.7002 6.79264 19.839L12.3159 21.2198C12.8708 21.3586 13.433 21.0211 13.5717 20.4663C13.7105 19.9115 13.3731 19.3492 12.8182 19.2104L7.29498 17.8296Z"/>
<path fill-rule="evenodd" clip-rule="evenodd" d="M25.3396 5.23468C24.4834 5.33589 23.6418 5.48403 22.9229 5.69923C22.5894 5.79907 22.2413 5.92564 21.8876 6.07061V6.33796V10.4646L22.9222 9.97315L22.9344 9.96702C23.002 9.93242 23.2872 9.78662 23.6136 9.78662C23.6792 9.78662 23.7431 9.79251 23.804 9.80222C24.0458 9.84077 24.2387 9.93937 24.2928 9.96702L24.305 9.97314L25.3396 10.4646V5.91907V5.23468Z"/>
</svg>
