<svg id="Camada_1-2" xmlns="http://www.w3.org/2000/svg" width="247.308" height="125.04" viewBox="0 0 247.308 125.04">
  <path id="Caminho_1" data-name="Caminho 1" d="M180.877,125.026,247.308,19.818a6.266,6.266,0,0,1-1.591-.8C234.743,34.106,201.177,76.662,172.733,75c-19.162-1.124-41.666-32.165-48.145-75a9.922,9.922,0,0,1-1.766.175,2.775,2.775,0,0,1-.365-.044C117.525,43.023,93.386,73.86,74.239,74.983,46.248,76.632,13.28,35.419,1.78,19.731A6.233,6.233,0,0,1,0,20.782L68.781,125.04c17.119-5.473,36.514-8.552,58.39-8.552a168.286,168.286,0,0,1,53.72,8.552ZM166.837,87.534a7.647,7.647,0,1,1-7.647,7.647A7.655,7.655,0,0,1,166.837,87.534ZM80.3,102.828a7.647,7.647,0,1,1,7.647-7.647,7.655,7.655,0,0,1-7.647,7.647Zm33.726-12.551,9.559-19.658,9.559,19.658-9.559,19.658Z" fill="#4189a6"/>
</svg>
